<?xml version="1.0" encoding="utf-8"?>
<!-- Generator: Adobe Illustrator 24.2.3, SVG Export Plug-In . SVG Version: 6.00 Build 0)  -->
<svg version="1.1" xmlns="http://www.w3.org/2000/svg" xmlns:xlink="http://www.w3.org/1999/xlink" x="0px" y="0px"
	 viewBox="0 0 1000 1000" style="enable-background:new 0 0 1000 1000;" xml:space="preserve">
<style type="text/css">
	.st0{fill:#FFFFFF;}
</style>
<g id="BACKGROUND">
</g>
<g id="BODY">
	<g id="Layer_2">
	</g>
</g>
<g id="TEXT">
</g>
<g id="ICON">
	<rect x="0" y="-0.5" width="1000.14" height="1000.55"/>
	<g>
		<path class="st0" d="M739,500c0,98.26-59.31,182.68-144.08,219.39c-10.94,4.75-22.31,8.7-34.03,11.76
			c-19.44,5.11-39.84,7.84-60.89,7.84C368.01,738.99,261,631.98,261,500c0-132,107.01-238.99,239.01-238.99
			C631.99,261.01,739,368,739,500z"/>
		<g>
			<path d="M610.71,396.01c-12.81,27.68-28.01,61.57-43.59,95.13c-15.23-34.25-30.79-67.81-43.59-95.49h-39.09
				c7.26,15.58,13.5,29.41,18.69,40.82c26.97,59.51,36.31,79.93,63.99,141.17c25.95-57.09,35.29-78.89,59.15-130.09v153.62h35.98
				V396.01H610.71z M446.72,395.65h-39.44c-9.68,20.42-85.1,185.1-94.8,205.52h39.44c34.25-73.69,37.02-79.24,38.76-83.73
				c1.73-4.84,4.15-7.61,36.31-78.89c51.96,111.16,87.63,191.07,133.91,292.6c11.72-3.06,23.08-7.01,34.03-11.76
				C551.91,625.79,448.07,400.07,446.72,395.65z"/>
		</g>
	</g>
</g>
<g id="SAMPLE_WATERMARK">
</g>
</svg>
