<?xml version="1.0" encoding="utf-8"?>
<!-- Generator: Adobe Illustrator 24.2.3, SVG Export Plug-In . SVG Version: 6.00 Build 0)  -->
<svg version="1.1" xmlns="http://www.w3.org/2000/svg" xmlns:xlink="http://www.w3.org/1999/xlink" x="0px" y="0px"
	 viewBox="0 0 1000 1000" style="enable-background:new 0 0 1000 1000;" xml:space="preserve">
<g id="BACKGROUND">
</g>
<g id="BODY">
	<g id="Layer_2">
	</g>
</g>
<g id="TEXT">
</g>
<g id="ICON">
	<g>
		<g>
			<path d="M452.39,331h-46.21c-11.34,23.9-99.7,216.85-111.06,240.75h46.21c40.12-86.33,43.38-92.81,45.4-98.09
				c2.03-5.67,4.86-8.92,42.54-92.42C480.47,490.77,518.18,574.4,561.14,669h45.92C550.32,545.59,453.79,335.6,452.39,331z
				 M644.51,331.39c-15,32.43-32.82,72.16-51.07,111.46c-17.84-40.13-36.07-79.42-51.07-111.85h-45.79
				c8.5,18.23,15.81,34.43,21.9,47.82c31.6,69.72,42.54,93.62,74.97,165.36c30.4-66.88,41.35-92.42,69.3-152.39v179.95h42.15V331.39
				H644.51z"/>
		</g>
	</g>
</g>
<g id="SAMPLE_WATERMARK">
</g>
</svg>
