<?xml version="1.0" encoding="utf-8"?>
<!-- Generator: Adobe Illustrator 24.2.3, SVG Export Plug-In . SVG Version: 6.00 Build 0)  -->
<svg version="1.1" xmlns="http://www.w3.org/2000/svg" xmlns:xlink="http://www.w3.org/1999/xlink" x="0px" y="0px"
	 viewBox="0 0 1000 1000" style="enable-background:new 0 0 1000 1000;" xml:space="preserve">
<style type="text/css">
	.st0{fill:#FFFFFF;}
</style>
<g id="BACKGROUND">
</g>
<g id="BODY">
	<g id="Layer_2">
	</g>
</g>
<g id="TEXT">
</g>
<g id="ICON">
	<g>
		<path d="M721,500c0,90.86-54.84,168.92-133.23,202.87c-10.12,4.39-20.63,8.05-31.46,10.88c-17.98,4.72-36.84,7.25-56.3,7.25
			C377.95,720.99,279,622.06,279,500c0-122.06,98.95-220.99,221.01-220.99C622.05,279.01,721,377.94,721,500z"/>
		<g>
			<path class="st0" d="M602.37,403.84c-11.84,25.59-25.9,56.94-40.31,87.97c-14.08-31.67-28.47-62.7-40.31-88.3H485.6
				c6.71,14.41,12.48,27.2,17.28,37.77c24.94,55.03,33.58,73.89,59.17,130.52c23.99-52.79,32.63-72.95,54.7-120.3v142.05h33.27
				V403.84H602.37z M450.73,403.51h-36.47c-8.95,18.88-78.69,171.16-87.66,190.04h36.47c31.67-68.14,34.24-73.25,35.84-77.42
				c1.6-4.47,3.84-7.04,33.58-72.95c48.05,102.79,81.03,176.68,123.83,270.56c10.84-2.83,21.35-6.49,31.46-10.88
				C548,616.31,451.98,407.6,450.73,403.51z"/>
		</g>
	</g>
</g>
<g id="SAMPLE_WATERMARK">
</g>
</svg>
